<?xml version="1.0" encoding="UTF-8" standalone="no"?>
<!-- Created with Inkscape (http://www.inkscape.org/) -->

<svg
   version="1.1"
   id="svg2"
   width="464.89334"
   height="464.89334"
   viewBox="0 0 464.89334 464.89334"
   sodipodi:docname="bangladesh-red-crescent-society-seeklogo.com.eps"
   xmlns:inkscape="http://www.inkscape.org/namespaces/inkscape"
   xmlns:sodipodi="http://sodipodi.sourceforge.net/DTD/sodipodi-0.dtd"
   xmlns="http://www.w3.org/2000/svg"
   xmlns:svg="http://www.w3.org/2000/svg">
  <defs
     id="defs6" />
  <sodipodi:namedview
     id="namedview4"
     pagecolor="#ffffff"
     bordercolor="#000000"
     borderopacity="0.25"
     inkscape:showpageshadow="2"
     inkscape:pageopacity="0.0"
     inkscape:pagecheckerboard="0"
     inkscape:deskcolor="#d1d1d1" />
  <g
     id="g8"
     inkscape:groupmode="layer"
     inkscape:label="ink_ext_XXXXXX"
     transform="matrix(1.3333333,0,0,-1.3333333,0,464.89333)">
    <g
       id="g10"
       transform="scale(0.1)">
      <path
         d="M 3486.67,1743.34 C 3486.67,780.531 2706.15,0 1743.33,0 780.523,0 0,780.531 0,1743.34 c 0,962.82 780.523,1743.33 1743.33,1743.33 962.82,0 1743.34,-780.51 1743.34,-1743.33"
         style="fill:#008940;fill-opacity:1;fill-rule:nonzero;stroke:none"
         id="path12" />
      <path
         d="m 2939.79,1743.34 c 0,-660.78 -535.67,-1196.461 -1196.46,-1196.461 -660.78,0 -1196.451,535.681 -1196.451,1196.461 0,660.78 535.671,1196.46 1196.451,1196.46 660.79,0 1196.46,-535.68 1196.46,-1196.46"
         style="fill:#ffffff;fill-opacity:1;fill-rule:nonzero;stroke:none"
         id="path14" />
      <path
         d="m 2939.79,1743.34 c 0,-660.78 -535.67,-1196.461 -1196.46,-1196.461 -660.78,0 -1196.451,535.681 -1196.451,1196.461 0,660.78 535.671,1196.46 1196.451,1196.46 660.79,0 1196.46,-535.68 1196.46,-1196.46 z"
         style="fill:none;stroke:#231f20;stroke-width:15.405;stroke-linecap:butt;stroke-linejoin:miter;stroke-miterlimit:4;stroke-dasharray:none;stroke-opacity:1"
         id="path16" />
      <path
         d="m 1530.23,1730.49 c 0,371.53 235.66,672.7 526.35,672.7 130.02,0 249.01,-60.3 340.85,-160.16 -140.07,233.2 -374.44,386.1 -639.97,386.1 -428.94,0 -776.675,-398.89 -776.675,-890.93 0,-492.04 347.735,-890.93 776.675,-890.93 248.47,0 469.7,133.871 611.87,342.15 -87.45,-82.69 -195.62,-131.62 -312.75,-131.62 -290.69,0 -526.35,301.18 -526.35,672.69"
         style="fill:#ed1c24;fill-opacity:1;fill-rule:nonzero;stroke:none"
         id="path18" />
      <path
         d="m 974.863,306.77 c 33.267,-16.321 66.007,-33.801 99.867,-48.848 38.79,-16.25 63.5,-25.844 74.06,-29.024 16.99,-4.617 32.8,-4.418 46.74,-0.66 13.98,3.871 26.36,11.293 37.18,22.242 10.83,10.95 18.45,23.461 23.13,37.43 5.93,17.738 6.38,34.852 1.74,51.199 -4.65,16.36 -14.28,30.18 -28.98,41.493 14.03,1.796 26.58,7.546 37.59,17.238 11.03,9.691 18.91,21.82 23.93,36.32 4.62,13.371 6.13,26.391 4.73,38.981 -1.41,12.597 -4.73,23.437 -9.98,32.558 -5.19,9.301 -12.39,15.973 -20.89,22.102 -8.56,6.008 -22.28,13.07 -41.27,21.097 -32.47,12.481 -62.5,30.293 -93.98,44.961 z m 205.297,200.601 c 23.89,-10.082 38.18,-16.582 42.93,-19.402 7.94,-4.828 12.88,-11.09 14.88,-18.778 1.99,-7.691 1.2,-16.25 -2.46,-25.621 -3.83,-9.789 -9.48,-16.59 -17.06,-20.371 -7.58,-3.777 -16.23,-4.301 -25.89,-1.648 -5.35,1.469 -18.46,6.64 -39.32,15.48 -11.86,4.617 -22.9,11.008 -34.38,16.457 l 32.86,67.742 c 9.5,-4.582 18.74,-9.718 28.44,-13.859 z m -41,-123.91 c 25.32,-10.762 41.19,-19.16 47.66,-25.25 6.49,-6.012 10.46,-13.25 12.21,-20.949 1.73,-7.762 0.92,-16.16 -2.52,-25.172 -4.07,-10.641 -10.07,-18.16 -18.13,-22.488 -7.95,-4.114 -16.62,-5.024 -26.04,-2.954 -6.2,1.192 -19.93,6.301 -41.15,15.332 -18.34,7.391 -36.2,15.782 -53.75,24.86 l 37.5,77.308 c 14.54,-7.308 29.07,-14.679 44.22,-20.687"
         style="fill:#ffffff;fill-opacity:1;fill-rule:nonzero;stroke:none"
         id="path20" />
      <path
         d="m 1278.59,182.379 c 39.47,-12.02 79.33,-22.508 119.77,-30.617 23.72,-5.211 43.06,-7.434 58.2,-4.742 20.15,3.082 36.58,9.261 49.25,18.539 16.78,12.203 30.43,29.492 41.02,51.82 8.67,18.301 14.49,41.211 17.71,67.762 3.68,30.379 3.57,55.839 0.23,77.468 -3.36,21.582 -9.57,40.371 -18.52,56.352 -8.96,15.961 -20.39,27.891 -34.55,35.769 -10.65,5.36 -26.27,11.372 -47.39,16.02 -31.42,6.148 -62.27,14.559 -92.89,23.84 z m 153.7,239.301 c 21.8,-4.801 36.2,-9.09 43.29,-12.801 9.44,-5.059 16.86,-11.508 22.22,-19.867 5.32,-8.481 8.77,-19.672 10.33,-33.59 1.54,-13.91 0.36,-33.313 -3.72,-58.192 -4.07,-24.89 -9.3,-44.23 -15.83,-57.98 -6.53,-13.77 -13.71,-23.262 -21.48,-28.48 -7.76,-5.168 -17.05,-8.559 -27.55,-8.75 -8.07,-0.36 -20.8,1.371 -38.12,5.218 l -46.31,10.301 53.13,209.422 24.04,-5.281"
         style="fill:#ffffff;fill-opacity:1;fill-rule:nonzero;stroke:none"
         id="path22" />
      <path
         d="m 1666.18,116.781 6.34,135.699 12.22,-0.378 c 13.84,-0.43 23.92,-1.973 30.26,-4.614 6.35,-2.617 12.36,-7.297 18.08,-14.047 5.73,-6.972 16.32,-22.75 32.79,-47.402 15.39,-23.219 31.46,-46.418 48.19,-69.57 26.2,0.203 52.28,3.109 78.4,5.359 -15.11,19.902 -29.7,39.863 -43.78,59.883 -16.64,23.59 -29.12,41.66 -38.12,51.059 -9,9.66 -20.1,18.441 -33.2,26.351 25.97,5 45.04,15.348 56.84,31.988 11.82,17.051 16.5,37.743 14.66,62.11 -1.44,19.211 -6.74,35.922 -15.51,50.14 -8.75,13.93 -19.59,24.313 -32.54,29.77 -12.98,5.601 -33.26,7.59 -61.1,7.141 -36.88,1.91 -73.99,0.769 -110.63,5.492 l -28.18,-324.5 c 21.73,-2.114 43.46,-4.262 65.28,-4.481 z m 12.66,270.59 42.75,-1.332 c 22.2,-1.141 35.53,-0.609 40,-1.258 8.91,-1.511 15.89,-5.551 21,-12.14 5.12,-6.602 7.91,-15.371 8.28,-26.309 0.34,-9.781 -1.31,-17.98 -5,-24.613 -3.68,-6.637 -8.96,-11.391 -15.83,-14.25 -6.86,-2.707 -24.24,-5.418 -52.11,-4 l -42.95,1.332 3.86,82.57"
         style="fill:#ffffff;fill-opacity:1;fill-rule:nonzero;stroke:none"
         id="path24" />
      <path
         d="m 2092.37,221.551 c -9.39,-13.422 -22.61,-21.922 -39.29,-25.422 -22.58,-5.117 -42.75,0.48 -59.61,15.84 -16.88,15.133 -27.95,43.101 -33.94,83.812 -5.66,38.36 -3.21,67.09 6.65,86.071 9.93,18.718 24.44,29.867 44.07,34.418 14.28,3.011 27.39,0.742 39.69,-6.711 12.26,-7.438 22.15,-19.161 29.38,-34.547 l 50.34,29.84 c -13.41,23.5 -27.78,40.41 -43.1,50.738 -25.69,16.859 -53.47,22.89 -84.67,16.621 -35.47,-8.531 -62.27,-25.441 -81.19,-59.352 -18.87,-33.668 -26.92,-75.468 -21.22,-129.8 5.28,-50.661 22.52,-90.989 53.41,-115.86 30.72,-24.629 69.24,-36.211 111.83,-26.32 34.47,7.449 61.33,21.172 78.61,44.66 17.46,22.832 25.57,52.75 24.46,89.762 l -62.54,3.32 c 0.86,-24.832 -3.47,-43.672 -12.88,-57.07"
         style="fill:#ffffff;fill-opacity:1;fill-rule:nonzero;stroke:none"
         id="path26" />
      <path
         d="m 2262.86,223.91 c 26.93,-11.64 60.17,-9.66 98.34,6.281 26.5,10.188 46.57,23.571 60.2,39.059 13.79,15.211 21.64,32.301 23.56,51.199 1.91,18.903 -1.55,36.571 -9.96,53.199 -9.3,18.352 -20.75,32.043 -34.06,41.231 -13.31,9.18 -27.81,14.543 -43.5,16.082 -15.84,1.801 -37.39,-1.082 -66.35,-4 -28.71,-3.492 -47.36,-3.191 -56.39,0.687 -7.09,2.981 -11.99,8.364 -14.66,15.622 -2.9,7.921 -2.44,15.191 1.15,22.171 5.6,10.75 15.6,19.039 30.26,24.918 14.19,5.711 26.28,6.532 36.4,2.661 9.91,-3.481 19.45,-12.391 28.55,-26.731 l 49.84,26.152 c -14.35,26.7 -33.41,44.5 -56.34,53.778 -23.02,9.34 -48.36,6.5 -78.75,-4.918 -18.53,-7.153 -32.56,-17.84 -43.54,-29.18 -10.88,-11.59 -17.69,-25.492 -20.48,-41.633 -2.76,-16.168 -1.76,-32.207 3.33,-47.988 7.91,-24.52 22.75,-42.57 45.44,-53.828 16.15,-8.07 40.96,-11.383 73.7,-6.942 25.6,3.032 42.43,4.739 50.03,4.981 11.05,0.449 19.47,-0.531 25.49,-3.711 6,-3.109 10.62,-8.148 13.8,-15.121 4.96,-10.859 4.69,-22.5 -1.03,-35.027 -5.59,-12.84 -18.36,-22.364 -37.39,-30.133 -18,-7.239 -34.17,-8.321 -48.18,-3.11 -13.95,4.981 -26.5,17.84 -37.07,36.723 l -54.41,-25.191 c 14.75,-33.61 35.19,-56.11 62.02,-67.231"
         style="fill:#ffffff;fill-opacity:1;fill-rule:nonzero;stroke:none"
         id="path28" />
      <path
         d="m 741.996,901.789 c -14.625,18.77 -30.41,36.633 -44.238,55.992 -16.231,21.559 -27.082,34.731 -31.711,40.129 -7.817,8.29 -17.234,13.37 -28.317,15.35 -11.066,1.99 -23.667,1.18 -37.519,-2.23 -13.773,-3.38 -26.766,-8.81 -38.844,-16.491 -15.289,-9.711 -26.832,-21.398 -33.996,-35.039 -7.062,-13.57 -8.859,-27.922 -5.441,-42.98 -10.785,4.902 -23.063,6.41 -36.832,4.589 -13.77,-1.82 -26.957,-6.668 -39.469,-14.75 -11.527,-7.437 -20.527,-16.277 -26.902,-26.64 -6.368,-10.34 -10.11,-20.649 -11.215,-30.887 -1.121,-10.262 0.32,-20.203 4.25,-29.754 3.726,-9.699 12.144,-22.527 24.312,-39.09 20.086,-28.207 42.364,-54.738 64.02,-81.738 z M 491.199,794.941 c -14.258,19.289 -22.57,31.18 -24.976,35.668 -4.071,7.52 -4.657,14.93 -1.985,21.993 2.617,7.039 7.969,13.308 16,18.859 8.395,5.801 16.524,8.461 24.336,8.07 7.735,-0.461 14.649,-3.582 20.676,-9.492 3.313,-3.289 10.59,-12.539 21.828,-27.769 6.199,-8.629 12.664,-17.051 19.442,-25.219 l -57.395,-45.223 c -6.164,7.551 -12.238,15.172 -17.926,23.113 z m 94.098,85.161 c -12.637,17.207 -19.813,29.16 -20.965,36.128 -1.129,7 0.063,13.739 3.578,20.211 3.508,6.469 9.153,12.321 16.879,17.579 9.141,6.25 17.617,9.468 25.379,9.742 7.793,0.289 14.125,-1.832 19.266,-6.25 3.597,-2.723 10.132,-10.481 19.593,-23.301 8.137,-10.961 16,-22.133 24.789,-32.582 L 608.316,850 c -8.105,9.699 -15.543,19.91 -23.019,30.102"
         style="fill:#ffffff;fill-opacity:1;fill-rule:nonzero;stroke:none"
         id="path30" />
      <path
         d="m 286.91,1024.6 c 8.399,-16.35 16.082,-33.08 25.153,-49.061 108.933,20.492 215.003,46.861 319.093,79.651 -7.644,12.93 -16.183,25.35 -23.183,38.65 l -70.809,-19.73 c -14.914,25.57 -27.476,52.38 -40.898,78.74 18.933,16.01 38.019,31.72 57.23,47.13 -6.012,13.81 -12.629,27.37 -18.223,41.37 C 449.352,1175.2 365.27,1102.3 286.91,1024.6 Z m 196.93,35.89 c -39.543,-9.76 -79.289,-18.65 -118.977,-26.56 29.567,28.44 59.547,56.1 89.918,82.95 9.727,-18.76 18.367,-38.12 29.059,-56.39"
         style="fill:#ffffff;fill-opacity:1;fill-rule:nonzero;stroke:none"
         id="path32" />
      <path
         d="m 513.059,1298.76 -195.903,-70.8 c 54.16,54.57 110.657,105.12 169.696,151.69 -4.286,13.35 -7.61,26.96 -10.954,40.56 l -306.402,-77.85 c 3.949,-15.62 7.656,-31.31 12.512,-46.67 l 204.789,58.62 c -59.817,-49.46 -117.234,-103.11 -171.82,-160.82 5.273,-16.05 11.82,-31.63 17.976,-47.35 l 293.965,116.32 c -4.66,12.08 -9.914,23.95 -13.859,36.3"
         style="fill:#ffffff;fill-opacity:1;fill-rule:nonzero;stroke:none"
         id="path34" />
      <path
         d="m 327.27,1595.52 39.695,4.1 c 8.164,-5.95 15.355,-13.19 21.558,-21.8 6.321,-8.57 9.559,-17.39 11.211,-26.42 2.922,-18.28 -4.015,-34.48 -20.675,-49.26 -16.817,-14.79 -42.731,-25.85 -79.727,-32.85 -34,-6.45 -61.484,-5.33 -80.769,4.29 -19.418,9.58 -30.911,25.59 -34.34,47.42 -2.422,14.36 1.203,27.11 8.84,37.71 7.8,10.63 19.203,18.4 34.203,23.41 -6.028,15.8 -11.305,31.8 -16.203,47.95 -28.5,-6.97 -50.833,-20 -65.411,-39.33 -14.242,-19.26 -20.168,-45.42 -15.703,-77.39 3.844,-24.54 12.313,-44.25 25.254,-58.67 17.692,-18.84 40.246,-30.86 67.457,-36.13 27.235,-5.28 56.848,-3.93 89.004,3.27 29.641,6.64 56.152,17.21 79.688,31.06 23.55,13.86 40.507,30.1 50.859,48.66 10.723,18.66 14.957,38.42 11.426,59.83 -2.391,16.92 -8.793,33.06 -20.653,48.82 -12.082,15.72 -23.664,27.9 -37.449,36.05 l -125.258,-8.88 c 1.715,-34 6.422,-67.76 10.504,-101.52 l 52.699,7.4 c -2.605,17.36 -4.089,34.87 -6.21,52.28"
         style="fill:#ffffff;fill-opacity:1;fill-rule:nonzero;stroke:none"
         id="path36" />
      <path
         d="m 439.121,1837.19 -53.086,3.76 c -3.496,-36.31 -3.152,-72.95 -3.613,-109.42 l -260.527,-2.21 1.175,-52.04 313.508,12.58 c -1.449,49.1 -1.344,98.39 2.543,147.33"
         style="fill:#ffffff;fill-opacity:1;fill-rule:nonzero;stroke:none"
         id="path38" />
      <path
         d="m 143.961,2024.55 c -3.219,-18.09 -6.672,-36.17 -8.656,-54.44 100.031,-47.83 200.832,-89.18 304.468,-124.32 1.313,14.97 1.77,30.05 4.09,44.91 -22.949,8.33 -45.871,16.97 -68.758,25.92 3.133,29.45 8.387,58.57 13.75,87.67 24.551,1.75 48.883,3.23 73.43,4.31 l 10.199,44.05 C 363.5,2050.16 253.32,2040.91 143.961,2024.55 Z m 180.105,-87.41 c -37.386,15.47 -75.281,31.85 -111.921,48.9 40.761,5.47 81.39,10.06 121.859,13.75 -3.762,-20.81 -7.711,-41.59 -9.938,-62.65"
         style="fill:#ffffff;fill-opacity:1;fill-rule:nonzero;stroke:none"
         id="path40" />
      <path
         d="m 477.789,2074.72 c 7.738,25.26 13.441,51.13 22.594,75.94 5,14.73 6.859,27.22 5.629,37.58 -1.832,13.93 -5.461,25.97 -12.953,36.88 -9.629,14.33 -24.082,28.44 -43.368,42.28 -15.781,11.31 -35.652,22.05 -59.714,31.96 -27.387,11.27 -51.364,18.34 -72.063,20.93 -20.68,2.6 -39.453,1.53 -56.348,-3.31 -16.726,-4.9 -31.101,-13.34 -41,-25.89 -7.421,-9.31 -14.632,-24.26 -21.535,-44.72 -10.636,-30.1 -18.074,-61.21 -27.136,-91.8 z M 243.48,2211.63 c 6.594,19.58 12.012,32.41 16.176,38.45 5.489,8.11 12.684,13.85 21.555,17.14 8.894,3.28 19.906,4.27 33.508,2.79 13.508,-1.44 31.699,-6.48 54.633,-15.04 22.933,-8.53 40.472,-16.77 52.64,-24.51 12.106,-7.74 20.528,-14.96 24.805,-21.54 4.312,-6.61 6.562,-13.69 6.723,-21.27 0.168,-5.81 -1.711,-14.52 -5.649,-26.12 -3.726,-10.27 -6.723,-20.77 -9.613,-31.3 l -201.078,59.52 6.3,21.88"
         style="fill:#ffffff;fill-opacity:1;fill-rule:nonzero;stroke:none"
         id="path42" />
      <path
         d="m 620.43,2414.11 -45.66,27.35 c -20.79,-34.77 -39.743,-70.51 -57.782,-106.74 l -77.961,37.66 c 17.457,34.43 34.899,68.86 54.789,101.96 l -45.91,26.91 c -20.609,-34.32 -38.722,-70 -56.797,-105.72 l -62.941,30.42 c 20.113,40.31 41.02,80.2 64.168,118.87 l -45.75,27.18 c -32.309,-55.18 -62.57,-111.69 -87.969,-170.45 l 288.949,-128.27 c 20.735,48.67 46.313,95.11 72.864,140.83"
         style="fill:#ffffff;fill-opacity:1;fill-rule:nonzero;stroke:none"
         id="path44" />
      <path
         d="m 628.652,2468.87 c 22.973,2.22 42.211,13.42 57.555,34.74 10.203,14.91 16.332,29.1 17.973,43.32 1.472,14.28 -1.836,29.09 -9.871,44.45 -8.047,15.32 -18.954,28.87 -32.93,40.37 -15.41,12.68 -30.207,20.98 -44.543,24.71 -14.324,3.73 -27.992,3.65 -41.016,-0.25 -12.808,-4.05 -30.152,-12.46 -49.304,-27.58 -19.481,-14.89 -33.922,-23.09 -43.086,-24.28 -7.219,-0.95 -13.95,0.64 -20.153,4.85 -6.8,4.61 -10.711,10.44 -11.672,17.56 -1.523,11.05 2.024,22.67 10.563,34.67 8.293,11.61 17.348,18.25 27.285,19.66 10.11,1.27 22.305,-2.25 36.621,-10.52 l 28.551,40.18 c -23.254,17.97 -46.594,26.32 -70.461,24.46 -23.734,-1.9 -46.484,-15.57 -65.019,-42.46 -11.512,-16.31 -18.602,-32.2 -20.305,-47.93 -1.512,-15.89 1.664,-30.72 9.496,-44.44 7.836,-13.74 18.641,-24.78 32.238,-33.4 21.137,-13.37 43.082,-18.41 65.418,-15.77 15.711,2.02 34.063,11.04 55.633,26.34 16.566,12.02 27.34,19.34 32.531,22.22 7.875,3.95 14.969,5.48 21.032,4.8 6.078,-0.69 12.054,-3.34 17.941,-7.88 9.184,-7.07 14.922,-16.13 17.355,-27.02 2.235,-10.77 -0.257,-22.13 -8.457,-33.62 -7.714,-10.85 -17.828,-16.66 -30.464,-17.6 -12.696,-0.9 -28.301,3.19 -46.946,12.44 l -18.586,-40.77 c 31.703,-16.3 59.356,-23.22 82.621,-21.25"
         style="fill:#ffffff;fill-opacity:1;fill-rule:nonzero;stroke:none"
         id="path46" />
      <path
         d="M 784.008,2632.04 682.641,2726 c 21.058,22.2 42.031,44.52 64.605,65.22 l 95.238,-100.15 c 10.258,9.56 19.993,19.69 30.844,28.6 l -210.414,235.94 c -13.367,-11.14 -25.574,-23.57 -38.273,-35.45 l 85.933,-90.36 c -23.386,-21.49 -45.144,-44.59 -66.965,-67.63 l -91.461,84.77 c -12.242,-12.37 -23.246,-25.85 -34.746,-38.92 l 238.614,-207.38 c 9.289,10.5 18.039,21.5 27.992,31.4"
         style="fill:#ffffff;fill-opacity:1;fill-rule:nonzero;stroke:none"
         id="path48" />
      <path
         d="m 1004.66,2822.68 -74.578,108.74 7.676,5.47 c 8.957,5.81 16.219,8.98 21.629,9.67 5.418,0.67 11.703,-0.49 18.793,-3.52 7.078,-3.04 22.21,-11.69 44.66,-26.37 20.86,-13.57 41.97,-28.61 62.23,-43.25 14.71,8.15 28.91,17.27 43.99,24.73 -17.33,14.44 -34.68,28.08 -52.39,41.55 -21.11,16.2 -37.16,26.69 -47.58,31.8 -10.44,5.12 -22.08,8.62 -34.988,10.49 15.508,13.54 23.868,29.6 25.318,48.26 1.42,18.67 -3.35,38.5 -14.77,59.3 -9.005,16.38 -20.13,29.16 -33.611,38.16 -13.465,9.02 -27.101,12.84 -40.805,11.51 -13.746,-1.24 -32.718,-8.8 -55.871,-24.05 -31.281,-19.31 -61.261,-40.52 -91.05,-62.03 L 970.387,2798.29 Z M 855.957,3039.5 c 10.582,7.86 21.953,14.53 32.949,21.77 17.27,11.09 27.836,17.41 31.668,19 7.762,3.05 15.371,2.73 22.645,-0.71 7.234,-3.39 13.539,-9.67 18.965,-18.8 4.847,-8.17 7.441,-15.8 7.855,-22.86 0.441,-7.14 -1.301,-12.99 -4.75,-18.35 -3.496,-5.32 -14.93,-14.17 -34.32,-26.61 -9.906,-6.49 -20.129,-12.51 -29.637,-19.6 l -45.375,66.16"
         style="fill:#ffffff;fill-opacity:1;fill-rule:nonzero;stroke:none"
         id="path50" />
      <path
         d="m 1294.92,2972.43 -18.25,50 c -37.8,-14.43 -75.32,-29.56 -111.91,-46.89 l -36.85,78.35 c 34.91,16.48 70.48,31.42 106.61,45.03 l -18.71,49.82 c -37.47,-14.11 -74.35,-29.6 -110.56,-46.7 l -29.75,63.24 c 40.74,19.3 82.44,36.32 124.56,52.36 l -18.41,49.94 c -59.73,-22.95 -118.93,-47.56 -175.62,-77.27 l 143.73,-281.57 c 46.81,24.69 95.86,44.68 145.16,63.69"
         style="fill:#ffffff;fill-opacity:1;fill-rule:nonzero;stroke:none"
         id="path52" />
      <path
         d="m 1329.05,2983.94 c 24.83,9.1 50.49,15.51 75.84,22.92 14.87,4.63 26.62,8.78 34.64,15.46 10.78,8.66 18.69,19.13 23.74,31.38 6.66,16.34 10.68,35.76 11.76,59.35 0.89,19.27 -0.96,41.72 -5.8,67.29 -5.51,29.1 -12.69,53.11 -21.84,72 -9.12,18.81 -20.36,34.42 -33.55,45.52 -13.23,11.27 -27.95,17.85 -43.98,19.76 -11.86,1.16 -28.59,0.13 -49.28,-6.1 -30.68,-8.78 -61.57,-16.9 -91.62,-27.71 z m -13.19,270.93 c 19.91,5.54 33.43,8.67 40.85,8.16 9.85,-0.37 18.62,-3.44 26.25,-9.21 7.64,-5.77 14.53,-14.68 20.67,-26.7 6.15,-12.04 11.84,-30 17.2,-53.88 5.36,-23.88 8.06,-43.09 8.23,-57.61 0.16,-14.52 -1.34,-25.33 -4.54,-32.41 -3.21,-7.09 -7.95,-12.69 -14.26,-16.78 -4.86,-3.01 -13.12,-6.4 -24.89,-9.81 l -31.51,-8.94 -59.91,200.95 21.91,6.23"
         style="fill:#ffffff;fill-opacity:1;fill-rule:nonzero;stroke:none"
         id="path54" />
      <path
         d="m 1729.69,3116.48 c -8.44,-11.08 -18.37,-16.77 -30.09,-17.05 -15.89,-0.38 -29.14,7.91 -40.23,23.78 -11.07,16.15 -18.31,44.11 -21.16,83.95 -2.68,37.54 0.93,65.11 11.41,82.76 10.42,17.92 25.3,26.58 44.03,27.06 13.55,0.36 25.19,-4.13 34.68,-13.43 9.48,-9.31 15.59,-22.02 18.43,-38.65 l 49.39,13.86 c -4.75,25.55 -12.8,45.26 -24.19,59.12 -19.1,23.87 -45.27,34.98 -77.25,33.96 -36.65,-0.32 -65.48,-17.97 -84.83,-48.52 -19.45,-30.67 -25.5,-72.23 -19.98,-124.78 5.19,-49.35 19.05,-87.6 39.83,-114.88 20.87,-27.44 44.19,-39.08 72.01,-39.01 22.46,0.38 40.82,10.07 55.91,26.14 15.06,16.55 26.63,42.23 34.63,76.98 l -44,20.18 c -3.95,-23.07 -10.15,-40.4 -18.59,-51.47"
         style="fill:#ffffff;fill-opacity:1;fill-rule:nonzero;stroke:none"
         id="path56" />
      <path
         d="m 1866.77,3045.32 12.29,131.29 9.39,-0.72 c 10.62,-1.12 18.22,-3.46 22.81,-6.36 4.59,-2.97 8.68,-7.89 12.19,-14.76 3.5,-6.88 9.59,-23.23 17.44,-48.91 7.34,-23.83 14,-48.48 20.15,-72.94 16.53,-3.06 33.16,-5.71 49.66,-9.01 -4.12,21.98 -8.76,43.36 -13.72,65.21 -5.85,26 -11.46,44.36 -16.18,55 -4.76,10.56 -11.43,20.97 -20.19,30.39 20.62,0.72 37.28,7.39 50.33,20.85 13.04,13.39 22.06,31.66 26.59,54.95 3.57,18.36 3.2,35.3 -1.39,50.88 -4.58,15.58 -12.61,27.28 -23.99,35.07 -11.32,8.06 -30.81,13.98 -58.34,17.2 -36.38,5.29 -72.99,8.02 -109.63,10.59 l -19.36,-315.54 z m 24.49,261.79 c 13.15,-0.74 26.18,-2.79 39.24,-4.34 20.36,-2.57 32.53,-4.5 36.5,-5.74 7.88,-2.82 13.59,-7.47 16.96,-14.85 3.4,-7.26 4.22,-16.13 2.54,-26.61 -1.49,-9.38 -4.39,-16.89 -8.58,-22.57 -4.2,-5.6 -9.35,-9.37 -15.42,-11.25 -6.1,-1.84 -20.54,-1.31 -43.39,1.6 -11.76,1.42 -23.49,3.23 -35.33,3.87 l 7.48,79.89"
         style="fill:#ffffff;fill-opacity:1;fill-rule:nonzero;stroke:none"
         id="path58" />
      <path
         d="m 2185.54,2974.51 17.99,50.09 c -38.12,13.62 -76.81,25.4 -115.89,35.93 l 21.84,83.79 c 37.19,-10.33 74.31,-20.87 110.64,-33.95 l 17.53,50.26 c -37.68,13.55 -76.17,24.5 -114.74,35.18 l 17.61,67.64 c 43.52,-11.78 86.68,-24.67 129.12,-39.86 l 17.83,50.13 c -60.46,20.9 -121.73,39.93 -184.36,53.26 l -69.79,-308.35 c 51.79,-10.83 102.24,-27 152.22,-44.12"
         style="fill:#ffffff;fill-opacity:1;fill-rule:nonzero;stroke:none"
         id="path60" />
      <path
         d="m 2240.8,2977.02 c 6.62,-22.1 21.29,-38.78 45.14,-49.75 16.57,-7.14 31.71,-10.33 45.92,-9.24 14.31,1.29 28.19,7.38 41.69,18.22 13.5,10.84 24.71,24.14 33.3,40.07 9.47,17.57 14.78,33.68 15.67,48.48 0.91,14.76 -1.79,28.17 -8.12,40.21 -6.42,11.84 -18.05,27.17 -36.58,43.06 -18.36,16.25 -29.19,28.86 -32.14,37.62 -2.33,6.9 -2.05,13.81 0.88,20.72 3.21,7.55 8.18,12.53 14.98,14.83 10.56,3.62 22.63,2.37 36.06,-3.7 13.02,-5.89 21.24,-13.56 24.58,-22.95 3.21,-9.69 2.1,-22.34 -3.26,-37.99 l 44.92,-20.32 c 13.16,26.27 16.86,50.79 10.44,73.87 -6.41,22.99 -24.26,42.62 -54.23,55.64 -18.25,8.16 -35.21,12.1 -50.99,10.69 -15.9,-1.57 -29.83,-7.55 -41.78,-17.87 -11.97,-10.36 -20.72,-23.08 -26.55,-38.1 -9.04,-23.32 -9.74,-45.82 -2.82,-67.23 5.01,-15.03 17.42,-31.26 36.57,-49.5 14.98,-13.94 24.24,-23.1 28.06,-27.65 5.44,-6.87 8.27,-13.61 8.77,-19.68 0.48,-6.1 -0.96,-12.47 -4.27,-19.13 -5.18,-10.37 -12.96,-17.74 -23.18,-22.22 -10.12,-4.25 -21.78,-4.09 -34.61,1.79 -12.13,5.47 -19.76,14.27 -23.12,26.49 -3.31,12.31 -2.33,28.38 3.15,48.46 l -43.59,10.35 c -9.86,-34.25 -11.32,-62.72 -4.89,-85.17"
         style="fill:#ffffff;fill-opacity:1;fill-rule:nonzero;stroke:none"
         id="path62" />
      <path
         d="m 2530.38,2868.66 c -13.3,-4.06 -24.23,-2.28 -34.16,3.93 -13.37,8.54 -19.58,22.6 -19.09,42.42 0.53,19.81 10.97,46.88 31.81,80.96 19.63,32.1 38.54,52.33 57.17,60.35 18.59,8.06 36.03,6.87 51.81,-3.27 11.43,-7.32 17.91,-18.32 20.19,-31.45 2.2,-13.24 -0.38,-27.33 -7.62,-42.35 16.28,-5.3 32.64,-10.75 48.48,-17.16 11.03,23.52 16.24,44.62 14.89,62.35 -2.25,29.71 -16.76,54.5 -43.13,72.66 -31.01,19.63 -63.41,24.12 -97.41,9.72 -33.93,-14.08 -63.09,-44.52 -89.03,-90.34 -24.54,-43.34 -35.41,-82.39 -34.11,-116.23 1.53,-33.59 12.39,-58.79 35.93,-73.45 18.61,-12.5 38.21,-16.63 60.47,-11.45 22.3,5.3 46.25,18.93 72.95,42.48 -7.5,14.34 -15.72,28.06 -24.2,41.74 -16.79,-16.67 -31.78,-26.96 -44.95,-30.91"
         style="fill:#ffffff;fill-opacity:1;fill-rule:nonzero;stroke:none"
         id="path64" />
      <path
         d="m 2684.9,2650.65 38.32,36.94 c -28.03,29.18 -57.19,57.43 -88.08,83.59 l 56.77,65.36 c 29.57,-24.81 57.07,-51.98 84.41,-79.18 l 37.97,37.29 c -28.32,28.2 -56.85,56.33 -87.49,82.08 l 45.83,52.77 c 34.36,-29.08 66.7,-60.52 98.08,-92.73 l 38.2,37.06 c -44.27,46.11 -91.79,89.02 -141.18,129.6 l -199.55,-245.21 c 40.8,-33.71 80.29,-69.12 116.72,-107.57"
         style="fill:#ffffff;fill-opacity:1;fill-rule:nonzero;stroke:none"
         id="path66" />
      <path
         d="m 2735.37,2595.21 157.95,135.77 c -30.58,-69.67 -66.65,-138.06 -104.32,-201.94 l 24.51,-34.18 258.56,181.93 -28.07,39.28 -170.5,-127.69 c 37.32,66.75 73.17,138.37 103.12,211.14 l -33.27,38.13 -233.53,-213.08 25.55,-29.36"
         style="fill:#ffffff;fill-opacity:1;fill-rule:nonzero;stroke:none"
         id="path68" />
      <path
         d="m 2884.76,2381.88 229.32,128.6 c 12.73,-21.1 23.13,-43.48 34.58,-65.27 l 47.59,23.81 c -29.98,61.46 -65.51,119.96 -102.83,177.13 l -44.21,-29.61 c 13.25,-20.76 26.76,-41.33 39.68,-62.29 l -225.07,-135.91 20.94,-36.46"
         style="fill:#ffffff;fill-opacity:1;fill-rule:nonzero;stroke:none"
         id="path70" />
      <path
         d="m 2984.14,2222.75 c -11.64,-19.95 -13.62,-42 -5.47,-66.94 5.99,-17.02 14.25,-30.17 24.66,-39.82 10.69,-9.55 24.59,-15.53 41.72,-17.99 17.11,-2.44 34.48,-1.54 51.98,3.06 19.29,5.08 34.7,12.23 46.13,21.68 11.42,9.45 19.37,20.58 23.87,33.44 4.39,12.82 7.41,31.71 6.4,56.12 -0.64,24.54 1.17,41.06 5.56,49.2 3.45,6.41 8.71,10.95 15.71,13.51 7.76,2.85 14.75,2.6 21.08,-0.78 9.85,-5.24 17.18,-14.92 21.89,-28.88 4.59,-13.52 4.59,-24.79 0,-33.66 -4.63,-8.87 -14.81,-16.77 -29.84,-23.54 l 15.75,-46.72 c 28.17,8.35 48.62,22.4 61.1,42.87 12.56,20.45 14.48,46.83 3.56,77.65 -6.53,18.89 -15.08,34.02 -27.07,44.53 -12,10.52 -25.88,16.62 -41.59,18.29 -15.72,1.67 -30.99,-0.65 -45.92,-6.66 -23.2,-9.34 -40.12,-24.21 -51.04,-43.91 -7.64,-13.97 -10.83,-34.04 -11.1,-60.52 0.02,-20.48 -0.37,-33.5 -1.08,-39.4 -1.05,-8.59 -4.24,-15.32 -8.27,-19.82 -4.13,-4.52 -9.77,-7.83 -16.9,-9.95 -11.11,-3.31 -21.8,-2.66 -32.03,1.73 -10.12,4.45 -18.01,13.07 -22.42,26.46 -4.26,12.6 -3.04,24.19 3.59,35.01 6.76,10.83 18.95,21.02 37.46,30.79 l -22.19,38.91 c -31.74,-16.22 -53.53,-34.62 -65.54,-54.66"
         style="fill:#ffffff;fill-opacity:1;fill-rule:nonzero;stroke:none"
         id="path72" />
      <path
         d="m 3057.32,2032.52 c -23.18,-24.44 -33.93,-51.34 -28.2,-81.72 4.73,-30.15 21.4,-52.43 52.76,-68.22 30.26,-15.83 70.75,-22.62 121.71,-18.52 51.31,4.13 90.74,18.01 117.6,43.35 25.74,25.14 37.01,57.83 30.95,95.79 -3.69,20.9 -11.12,38.67 -22.16,52.92 -8.01,10.77 -19.97,19.63 -34.71,26.66 -14.76,7.02 -30.62,11.38 -47.56,13.19 -23,2.38 -50.12,-0.46 -81.46,-8.03 -48.94,-11.87 -85.14,-30.93 -108.93,-55.42 z m 205.36,6.15 c 19.91,-8.96 31.79,-24.1 35.45,-44.73 3.72,-20.65 -3.71,-38.74 -19.58,-53.29 -16.11,-14.61 -42.19,-23.65 -78.14,-27.77 -36.41,-4.16 -64.46,-1.42 -84.07,7.58 -19.84,8.98 -29.94,21.93 -33.12,39.08 -3.09,17.17 3.48,32.86 19.59,47.76 16.11,14.87 41.62,26.27 76.54,33.49 35.68,7.37 63.41,6.89 83.33,-2.12"
         style="fill:#ffffff;fill-opacity:1;fill-rule:nonzero;stroke:none"
         id="path74" />
      <path
         d="m 3116.01,1699.35 c -10.7,8.89 -15.94,19.05 -15.71,30.77 0.61,15.89 8.15,28.78 25.01,39.23 16.69,10.41 44.98,16.47 84.9,17.67 37.62,1.12 64.98,-3.63 82.07,-14.82 16.95,-11.15 26.27,-26.36 25.64,-45.1 -0.25,-13.56 -5.24,-25 -14.94,-34.09 -9.59,-9.09 -23.04,-14.65 -39.6,-16.83 l 12.28,-49.96 c 25.72,3.69 45.62,10.92 59.84,21.76 24.27,18.13 36.92,43.81 37.17,75.79 0.76,36.63 -15.7,66.14 -45.05,86.74 -29.38,20.71 -71.98,28.44 -124.25,25.12 -49.98,-3.16 -87.48,-15.35 -116.02,-35 -28.55,-19.73 -41.4,-42.6 -41.87,-70.39 -0.39,-22.48 7.85,-41.19 23.64,-56.94 16.07,-15.73 41.44,-28.37 75.8,-37.78 l 21.55,43.15 c -23.09,4.9 -39.66,11.79 -50.46,20.68"
         style="fill:#ffffff;fill-opacity:1;fill-rule:nonzero;stroke:none"
         id="path76" />
      <path
         d="m 3039.29,1566.98 313.32,-42.19 c 2.17,17.27 4.81,34.5 6.17,51.84 l -314.51,32.11 c -1.02,-14 -3.24,-27.85 -4.98,-41.76"
         style="fill:#ffffff;fill-opacity:1;fill-rule:nonzero;stroke:none"
         id="path78" />
      <path
         d="m 2997.79,1372.29 51.03,-15.06 c 11.45,38.8 21.27,78.08 29.08,117.78 l 84.9,-16.96 c -7.63,-37.83 -16.41,-75.44 -27.26,-112.47 l 51.17,-14.6 c 11.25,38.4 20.37,77.42 28.28,116.63 l 68.54,-13.69 c -8.83,-44.17 -19.39,-88.02 -32.2,-131.21 l 51.09,-14.91 c 18.18,61.37 32.32,123.93 42.67,187.06 l -311.85,51.93 c -8.62,-52.17 -20.21,-103.87 -35.45,-154.5"
         style="fill:#ffffff;fill-opacity:1;fill-rule:nonzero;stroke:none"
         id="path80" />
      <path
         d="m 2956.72,1254.54 243.84,-98.32 c -9.03,-22.93 -18.89,-45.5 -29.22,-67.86 l 48.36,-22.21 c 28.58,62.07 53.4,125.93 73.61,191.25 l -50.8,15.91 c -7.6,-23.43 -15.01,-46.92 -23.82,-69.94 l -246.9,90.39 c -4.74,-13.18 -9.57,-26.33 -15.07,-39.22"
         style="fill:#ffffff;fill-opacity:1;fill-rule:nonzero;stroke:none"
         id="path82" />
      <path
         d="m 2875.14,1087.68 114.7,-66.61 c 39.02,-55.129 74.88,-112.531 108.81,-172.941 l 32.3,50.922 c -25.66,38.871 -51.93,76.32 -79.35,112.669 45.25,-3.97 91.64,-6.75 138.02,-7.76 9.01,18.46 18.56,36.67 27.02,55.41 -68.95,-2.86 -136.46,-2.47 -203.85,1.93 l -117.15,63.07 c -6.63,-12.35 -13.19,-24.72 -20.5,-36.69"
         style="fill:#ffffff;fill-opacity:1;fill-rule:nonzero;stroke:none"
         id="path84" />
      <path
         d="m 934.57,572.559 c 0,-74.438 -60.347,-134.797 -134.789,-134.797 -74.449,0 -134.797,60.359 -134.797,134.797 0,74.441 60.348,134.793 134.797,134.793 74.442,0 134.789,-60.352 134.789,-134.793"
         style="fill:#ffffff;fill-opacity:1;fill-rule:nonzero;stroke:none"
         id="path86" />
      <path
         d="m 2813.98,572.559 c 0,-74.438 -60.35,-134.797 -134.79,-134.797 -74.45,0 -134.8,60.359 -134.8,134.797 0,74.441 60.35,134.793 134.8,134.793 74.44,0 134.79,-60.352 134.79,-134.793"
         style="fill:#ffffff;fill-opacity:1;fill-rule:nonzero;stroke:none"
         id="path88" />
    </g>
  </g>
</svg>
