<svg xmlns="http://www.w3.org/2000/svg" xmlns:xlink="http://www.w3.org/1999/xlink" width="500" zoomAndPan="magnify" viewBox="0 0 375 374.999991" height="500" preserveAspectRatio="xMidYMid meet" version="1.0"><defs><g/><clipPath id="7a186ab7b9"><path d="M 178.847656 161.222656 L 337.5 161.222656 L 337.5 213.777344 L 178.847656 213.777344 Z M 178.847656 161.222656 " clip-rule="nonzero"/></clipPath><clipPath id="34fdd7ca56"><path d="M 207 141 L 244 141 L 244 178 L 207 178 Z M 207 141 " clip-rule="nonzero"/></clipPath><clipPath id="684e7511c1"><path d="M 203.332031 168.117188 L 232.972656 136.988281 L 247.070312 150.410156 L 217.429688 181.539062 Z M 203.332031 168.117188 " clip-rule="nonzero"/></clipPath><clipPath id="475e648d07"><path d="M 210.042969 161.066406 L 226.261719 144.035156 C 228.042969 142.164062 230.492188 141.078125 233.070312 141.015625 C 235.652344 140.953125 238.152344 141.917969 240.023438 143.699219 C 241.890625 145.476562 242.976562 147.925781 243.039062 150.507812 C 243.101562 153.089844 242.140625 155.589844 240.359375 157.457031 L 224.140625 174.492188 C 222.359375 176.359375 219.910156 177.445312 217.328125 177.507812 C 214.75 177.574219 212.25 176.609375 210.378906 174.828125 C 208.511719 173.046875 207.425781 170.597656 207.363281 168.019531 C 207.296875 165.4375 208.261719 162.9375 210.042969 161.066406 Z M 210.042969 161.066406 " clip-rule="nonzero"/></clipPath></defs><rect x="-37.5" width="450" fill="#ffffff" y="-37.499999" height="449.999989" fill-opacity="1"/><rect x="-37.5" width="450" fill="#152039" y="-37.499999" height="449.999989" fill-opacity="1"/><path fill="#004be0" d="M 134.257812 126.40625 C 137.90625 122.753906 143.789062 122.753906 147.4375 126.40625 C 151.085938 130.054688 151.085938 135.933594 147.4375 139.582031 L 131.519531 155.5 C 127.871094 159.148438 121.992188 159.148438 118.34375 155.5 C 114.691406 151.851562 114.691406 145.96875 118.34375 142.320312 Z M 223.433594 248.5625 C 219.785156 252.210938 213.90625 252.210938 210.253906 248.5625 C 206.605469 244.910156 206.605469 239.03125 210.253906 235.382812 L 226.171875 219.464844 C 229.820312 215.816406 235.699219 215.816406 239.351562 219.464844 C 243 223.117188 243 228.996094 239.351562 232.644531 Z M 208.328125 126.335938 C 211.980469 122.6875 217.859375 122.6875 221.507812 126.335938 C 225.15625 129.988281 225.15625 135.867188 221.507812 139.515625 L 206.742188 154.28125 C 203.089844 157.933594 197.210938 157.933594 193.5625 154.28125 C 189.914062 150.632812 189.914062 144.753906 193.5625 141.105469 Z M 188.796875 219.871094 C 192.445312 216.222656 198.328125 216.222656 201.976562 219.871094 C 205.625 223.523438 205.625 229.402344 201.976562 233.050781 L 176.195312 258.832031 C 172.542969 262.484375 166.664062 262.484375 163.015625 258.832031 C 159.367188 255.183594 159.367188 249.304688 163.015625 245.65625 Z M 237.019531 171.652344 C 240.667969 168.003906 246.546875 168.003906 250.195312 171.652344 C 253.847656 175.300781 253.847656 181.179688 250.195312 184.832031 L 224.414062 210.613281 C 220.765625 214.261719 214.882812 214.261719 211.234375 210.613281 C 207.585938 206.964844 207.585938 201.085938 211.234375 197.433594 Z M 133.3125 164.386719 C 136.960938 160.738281 142.839844 160.738281 146.492188 164.386719 C 150.140625 168.035156 150.140625 173.914062 146.492188 177.566406 L 120.675781 203.3125 C 117.023438 206.964844 111.144531 206.964844 107.496094 203.3125 C 103.847656 199.664062 103.847656 193.785156 107.496094 190.136719 Z M 181.53125 116.167969 L 155.75 141.949219 C 152.101562 145.597656 152.101562 151.476562 155.75 155.128906 C 159.398438 158.777344 165.277344 158.777344 168.929688 155.128906 L 194.675781 129.3125 C 198.328125 125.660156 198.328125 119.78125 194.675781 116.132812 C 191.0625 112.515625 185.148438 112.515625 181.53125 116.167969 Z M 132.46875 202.199219 L 117.699219 216.964844 C 114.050781 220.617188 114.050781 226.496094 117.699219 230.144531 C 121.351562 233.792969 127.230469 233.792969 130.878906 230.144531 L 145.644531 215.378906 C 149.296875 211.726562 149.296875 205.847656 145.644531 202.199219 C 141.996094 198.582031 136.117188 198.582031 132.46875 202.199219 Z M 226.8125 144.855469 L 212.046875 159.621094 C 208.398438 163.273438 208.398438 169.152344 212.046875 172.800781 C 215.695312 176.449219 221.574219 176.449219 225.226562 172.800781 L 239.992188 158.035156 C 243.640625 154.382812 243.640625 148.503906 239.992188 144.855469 C 236.375 141.207031 230.460938 141.207031 226.8125 144.855469 Z M 150.953125 220.71875 L 136.21875 235.484375 C 132.570312 239.132812 132.570312 245.011719 136.21875 248.664062 C 139.867188 252.3125 145.746094 252.3125 149.398438 248.664062 L 164.164062 233.894531 C 167.8125 230.246094 167.8125 224.367188 164.164062 220.71875 C 160.515625 217.066406 154.601562 217.066406 150.953125 220.71875 Z M 150.953125 220.71875 " fill-opacity="1" fill-rule="evenodd"/><g clip-path="url(#7a186ab7b9)"><path fill="#152039" d="M 178.847656 161.222656 L 337.5 161.222656 L 337.5 213.777344 L 178.847656 213.777344 Z M 178.847656 161.222656 " fill-opacity="1" fill-rule="nonzero"/></g><g clip-path="url(#34fdd7ca56)"><g clip-path="url(#684e7511c1)"><g clip-path="url(#475e648d07)"><path fill="#f14902" d="M 203.332031 168.117188 L 232.972656 136.988281 L 247.070312 150.410156 L 217.429688 181.539062 Z M 203.332031 168.117188 " fill-opacity="1" fill-rule="nonzero"/></g></g></g><g fill="#ff6341" fill-opacity="1"><g transform="translate(158.150363, 201.925446)"><g><path d="M 10.625 -23.292969 L 1.648438 -23.292969 L 1.648438 0 L 7.257812 0 L 7.257812 -7.820312 L 8.183594 -7.820312 L 13 0 L 19.003906 0 L 19.003906 -1.054688 L 14.054688 -8.378906 C 17.089844 -9.832031 18.574219 -12.800781 18.574219 -15.605469 C 18.574219 -19.433594 15.902344 -23.292969 10.625 -23.292969 Z M 10.492188 -12.933594 L 7.257812 -12.933594 L 7.257812 -17.882812 L 10.492188 -17.882812 C 12.207031 -17.882812 13.066406 -16.59375 13.066406 -15.375 C 13.066406 -14.1875 12.175781 -12.933594 10.492188 -12.933594 Z M 10.492188 -12.933594 "/></g></g></g><g fill="#ff6341" fill-opacity="1"><g transform="translate(178.207254, 201.925446)"><g><path d="M 18.871094 -8.972656 C 18.871094 -15.078125 14.253906 -18.113281 9.667969 -18.113281 C 5.015625 -18.113281 0.429688 -15.078125 0.429688 -8.972656 C 0.429688 -2.871094 5.015625 0.199219 9.632812 0.199219 C 13.328125 0.199219 16.992188 -1.75 18.34375 -5.640625 L 12.703125 -5.640625 C 11.941406 -4.816406 10.855469 -4.421875 9.699219 -4.421875 C 8.117188 -4.453125 6.5 -5.277344 5.871094 -6.929688 L 18.671875 -6.929688 C 18.804688 -7.589844 18.871094 -8.25 18.871094 -8.972656 Z M 13.195312 -10.988281 L 6.070312 -10.988281 C 6.597656 -12.734375 8.015625 -13.59375 9.566406 -13.59375 C 11.25 -13.59375 12.703125 -12.769531 13.195312 -10.988281 Z M 13.195312 -10.988281 "/></g></g></g><g fill="#ff6341" fill-opacity="1"><g transform="translate(199.319771, 201.925446)"><g><path d="M 9.105469 -18.144531 C 3.300781 -18.144531 0.460938 -14.054688 0.460938 -9.171875 C 0.460938 -4.257812 3.398438 0.230469 9.039062 0.230469 C 10.753906 0.230469 12.503906 -0.265625 13.726562 -1.78125 L 13.726562 0 L 18.90625 0 L 18.90625 -23.257812 L 13.726562 -23.257812 L 13.726562 -16.230469 C 12.539062 -17.585938 10.855469 -18.144531 9.105469 -18.144531 Z M 9.667969 -4.75 C 7.027344 -4.75 5.675781 -6.894531 5.675781 -9.039062 C 5.675781 -11.21875 6.996094 -13.363281 9.667969 -13.363281 C 11.910156 -13.363281 13.726562 -11.414062 13.726562 -9.039062 C 13.726562 -6.664062 11.910156 -4.75 9.667969 -4.75 Z M 9.667969 -4.75 "/></g></g></g><g fill="#ffffff" fill-opacity="1"><g transform="translate(227.32534, 204.625446)"><g><path d="M -0.9375 -12.5625 C -0.898438 -3.816406 5.722656 0.539062 12.382812 0.539062 C 18.679688 0.539062 24.980469 -3.347656 25.699219 -11.121094 L 16.339844 -11.121094 C 15.835938 -9.179688 14.253906 -8.207031 12.667969 -8.207031 C 10.761719 -8.207031 8.855469 -9.644531 8.816406 -12.5625 C 8.816406 -15.511719 10.726562 -16.953125 12.667969 -16.953125 C 14.21875 -16.953125 15.730469 -16.015625 16.304688 -14.144531 L 25.699219 -14.144531 C 24.90625 -21.882812 18.644531 -25.769531 12.417969 -25.769531 C 5.757812 -25.769531 -0.898438 -21.378906 -0.9375 -12.5625 Z M -0.9375 -12.5625 "/></g></g></g><g fill="#ffffff" fill-opacity="1"><g transform="translate(254.856367, 204.625446)"><g><path d="M 9 0 L 9 -7.59375 C 9 -10.582031 10.832031 -12.128906 13.246094 -12.128906 C 13.855469 -12.128906 14.503906 -12.023438 15.1875 -11.804688 L 15.367188 -19.578125 C 14.648438 -19.796875 13.855469 -19.941406 13.027344 -19.941406 C 11.265625 -19.941406 9.503906 -19.328125 8.710938 -17.746094 L 8.351562 -19.472656 L 0.359375 -19.472656 L 0.359375 0 Z M 9 0 "/></g></g></g><g fill="#ffffff" fill-opacity="1"><g transform="translate(271.410966, 204.625446)"><g><path d="M 21.667969 -9.824219 C 21.667969 -16.59375 16.234375 -19.976562 10.761719 -20.011719 C 4.605469 -20.011719 -0.25 -16.339844 -0.25 -9.824219 C -0.25 -3.597656 4.175781 0.503906 10.4375 0.503906 C 15.621094 0.503906 19.578125 -1.582031 21.234375 -6.585938 L 13.28125 -6.585938 C 12.667969 -5.867188 11.734375 -5.507812 10.796875 -5.507812 C 9.539062 -5.507812 8.3125 -6.191406 8.097656 -7.59375 L 21.453125 -7.59375 C 21.59375 -8.3125 21.667969 -9.035156 21.667969 -9.824219 Z M 13.390625 -11.445312 L 8.097656 -11.445312 C 8.351562 -12.742188 9.539062 -13.390625 10.761719 -13.390625 C 11.949219 -13.390625 13.171875 -12.742188 13.390625 -11.445312 Z M 13.390625 -11.445312 "/></g></g></g><g fill="#ffffff" fill-opacity="1"><g transform="translate(294.80334, 204.625446)"><g><path d="M 10.511719 0.539062 C 16.339844 0.539062 20.730469 -2.914062 21.199219 -8.675781 L 13.210938 -8.675781 C 12.847656 -7.488281 11.769531 -6.875 10.726562 -6.875 C 9.394531 -6.875 8.027344 -7.808594 8.027344 -9.71875 C 8.027344 -11.625 9.394531 -12.5625 10.726562 -12.5625 C 11.769531 -12.5625 12.8125 -11.984375 13.210938 -10.796875 L 21.199219 -10.796875 C 20.730469 -16.554688 16.339844 -20.011719 10.511719 -20.011719 C 4.28125 -20.011719 -0.25 -16.125 -0.25 -9.71875 C -0.25 -3.347656 4.320312 0.539062 10.511719 0.539062 Z M 10.511719 0.539062 "/></g></g></g><g fill="#ffffff" fill-opacity="1"><g transform="translate(317.296003, 204.625446)"><g><path d="M 21.667969 -9.824219 C 21.667969 -16.59375 16.234375 -19.976562 10.761719 -20.011719 C 4.605469 -20.011719 -0.25 -16.339844 -0.25 -9.824219 C -0.25 -3.597656 4.175781 0.503906 10.4375 0.503906 C 15.621094 0.503906 19.578125 -1.582031 21.234375 -6.585938 L 13.28125 -6.585938 C 12.667969 -5.867188 11.734375 -5.507812 10.796875 -5.507812 C 9.539062 -5.507812 8.3125 -6.191406 8.097656 -7.59375 L 21.453125 -7.59375 C 21.59375 -8.3125 21.667969 -9.035156 21.667969 -9.824219 Z M 13.390625 -11.445312 L 8.097656 -11.445312 C 8.351562 -12.742188 9.539062 -13.390625 10.761719 -13.390625 C 11.949219 -13.390625 13.171875 -12.742188 13.390625 -11.445312 Z M 13.390625 -11.445312 "/></g></g></g><g fill="#ffffff" fill-opacity="1"><g transform="translate(340.688378, 204.625446)"><g><path d="M 8.675781 -19.472656 L 0.359375 -19.472656 L 0.359375 0 L 9 0 L 9 -10.511719 C 9 -11.914062 10.113281 -12.597656 11.15625 -12.597656 C 12.273438 -12.597656 13.136719 -11.878906 13.136719 -10.511719 L 13.136719 0 L 21.777344 0 L 21.777344 -10.546875 C 21.777344 -15.835938 19.6875 -19.796875 13.785156 -19.796875 C 11.914062 -19.796875 10.007812 -19.183594 8.675781 -17.492188 Z M 8.675781 -19.472656 "/></g></g></g><g fill="#ffffff" fill-opacity="1"><g transform="translate(364.224707, 204.625446)"><g><path d="M 13.964844 -0.0703125 L 13.675781 -5.328125 C 13.316406 -5.21875 12.921875 -5.148438 12.523438 -5.148438 C 11.445312 -5.148438 10.367188 -5.652344 10.367188 -6.945312 L 10.367188 -13.460938 L 13.714844 -13.460938 L 13.714844 -19.363281 L 10.367188 -19.363281 L 10.367188 -24.113281 L 1.726562 -23.574219 L 1.726562 -19.363281 L -0.394531 -19.363281 L -0.394531 -13.460938 L 1.726562 -13.460938 L 1.726562 -6.945312 C 1.726562 -1.441406 5.148438 0.648438 9.359375 0.648438 C 10.832031 0.648438 12.417969 0.394531 13.964844 -0.0703125 Z M 13.964844 -0.0703125 "/></g></g></g></svg>