<?xml version="1.0" encoding="UTF-8" standalone="no"?>
<!-- Created with Inkscape (http://www.inkscape.org/) -->

<svg
   version="1.1"
   id="svg2"
   width="78.626663"
   height="78.626663"
   viewBox="0 0 78.626663 78.626663"
   sodipodi:docname="redcres.eps"
   xmlns:inkscape="http://www.inkscape.org/namespaces/inkscape"
   xmlns:sodipodi="http://sodipodi.sourceforge.net/DTD/sodipodi-0.dtd"
   xmlns="http://www.w3.org/2000/svg"
   xmlns:svg="http://www.w3.org/2000/svg">
  <defs
     id="defs6" />
  <sodipodi:namedview
     id="namedview4"
     pagecolor="#ffffff"
     bordercolor="#000000"
     borderopacity="0.25"
     inkscape:showpageshadow="2"
     inkscape:pageopacity="0.0"
     inkscape:pagecheckerboard="0"
     inkscape:deskcolor="#d1d1d1" />
  <g
     id="g8"
     inkscape:groupmode="layer"
     inkscape:label="ink_ext_XXXXXX"
     transform="matrix(1.3333333,0,0,-1.3333333,0,78.626667)">
    <g
       id="g10"
       transform="scale(0.1)">
      <path
         d="M 587.18,2.5 V 587.184 H 2.5 V 2.5 h 584.68"
         style="fill:#ffffff;fill-opacity:1;fill-rule:nonzero;stroke:none"
         id="path12" />
      <path
         d="M 587.18,2.5 V 587.184 H 2.5 V 2.5 Z"
         style="fill:none;stroke:#000000;stroke-width:5;stroke-linecap:butt;stroke-linejoin:miter;stroke-miterlimit:4;stroke-dasharray:none;stroke-opacity:1"
         id="path14" />
      <path
         d="M 487.172,166.477 C 447.727,113.43 384.027,78.6328 312.836,78.6328 c -119.547,0 -216.4649,96.9182 -216.4649,216.4652 0,119.55 96.9179,216.465 216.4649,216.465 59.777,0 113.894,-24.227 153.062,-63.403 -26.293,16.258 -55.312,23.395 -88.5,23.395 -95.152,0 -172.289,-77.141 -172.289,-172.293 0,-95.149 77.137,-172.282 172.289,-172.282 41.715,0 79.969,14.821 109.774,39.497"
         style="fill:#ed1c24;fill-opacity:1;fill-rule:nonzero;stroke:none"
         id="path16" />
    </g>
  </g>
</svg>
